<?xml version="1.0" standalone="no"?>
<!DOCTYPE svg PUBLIC "-//W3C//DTD SVG 20010904//EN"
 "http://www.w3.org/TR/2001/REC-SVG-20010904/DTD/svg10.dtd">
<svg version="1.0" xmlns="http://www.w3.org/2000/svg"
 width="260.000000pt" height="260.000000pt" viewBox="0 0 260.000000 260.000000"
 preserveAspectRatio="xMidYMid meet">
<metadata>
Created by potrace 1.11, written by Peter Selinger 2001-2013
</metadata>
<g transform="translate(0.000000,260.000000) scale(0.100000,-0.100000)"
fill="#000000" stroke="none">
<path d="M1502 2505 c-48 -21 -1388 -1362 -1407 -1409 -20 -47 -19 -114 3
-154 9 -17 61 -77 114 -131 l97 -100 56 33 c176 107 390 6 420 -198 10 -64 -2
-117 -40 -180 l-34 -56 102 -101 c56 -56 117 -108 136 -116 45 -19 97 -19 146
1 54 22 1388 1358 1412 1413 19 46 19 99 0 145 -8 19 -61 80 -117 136 l-102
102 -31 -23 c-173 -124 -408 -27 -442 181 -10 65 2 123 40 186 l33 56 -99 99
c-55 55 -115 106 -134 115 -41 20 -109 20 -153 1z m310 -693 c281 -280 288
-288 288 -327 0 -39 -8 -48 -473 -512 -464 -464 -473 -473 -512 -473 -38 0
-47 8 -327 287 -282 281 -288 288 -288 328 0 39 6 46 473 512 464 465 473 473
512 473 39 0 47 -7 327 -288z"/>
<path d="M1070 1530 c-223 -225 -404 -412 -403 -417 2 -8 330 -341 420 -426
l30 -28 412 412 c405 404 412 412 394 431 -53 59 -436 438 -442 437 -3 -1
-188 -185 -411 -409z"/>
</g>
</svg>
