<?xml version="1.0" standalone="no"?>
<!DOCTYPE svg PUBLIC "-//W3C//DTD SVG 20010904//EN"
 "http://www.w3.org/TR/2001/REC-SVG-20010904/DTD/svg10.dtd">
<svg version="1.0" xmlns="http://www.w3.org/2000/svg"
 width="260.000000pt" height="260.000000pt" viewBox="0 0 260.000000 260.000000"
 preserveAspectRatio="xMidYMid meet">
<metadata>
Created by potrace 1.11, written by Peter Selinger 2001-2013
</metadata>
<g transform="translate(0.000000,260.000000) scale(0.100000,-0.100000)"
fill="#000000" stroke="none">
<path d="M1490 2499 c-51 -30 -1368 -1347 -1391 -1391 -22 -44 -25 -115 -5
-161 7 -18 58 -79 113 -137 l99 -104 48 31 c253 168 551 -130 384 -382 l-31
-47 84 -85 c112 -114 158 -143 225 -143 29 0 65 5 81 11 37 13 1379 1353 1404
1401 12 23 19 57 19 91 0 68 -28 113 -143 226 l-85 84 -47 -31 c-252 -167
-550 131 -383 383 l31 47 -84 84 c-117 118 -158 144 -228 144 -39 0 -67 -6
-91 -21z m322 -687 c280 -279 288 -288 288 -327 0 -38 -9 -48 -457 -498 -252
-252 -470 -465 -485 -473 -63 -33 -62 -34 -370 274 -280 279 -288 288 -288
327 0 38 9 48 453 493 248 250 466 463 482 473 67 42 64 44 377 -269z"/>
<path d="M1067 1532 c-224 -224 -407 -412 -407 -417 0 -13 442 -455 455 -455
13 0 825 812 825 825 0 13 -442 455 -455 455 -6 0 -193 -183 -418 -408z"/>
</g>
</svg>
